<svg width="1446" height="464" viewBox="0 0 1446 464" fill="none" xmlns="http://www.w3.org/2000/svg">
<path d="M88.9146 29.4453L88.9146 266.993C122.158 266.197 154.565 270.616 171.924 236.537C184.08 212.649 188.844 180.666 199.062 155.518L294.612 155.518C283.956 186.744 273.578 218.422 261.462 249.104C251.456 274.438 240.786 297.689 220.614 316.745L309.21 463.401L205.034 463.401L137.353 346.618H88.9146L88.9146 463.401H0L0 29.4453L88.9146 29.4453Z" fill="#18181B"/>
<path d="M937.989 29.4453V266.993C971.232 266.197 1003.64 270.616 1021 236.537C1033.15 212.649 1037.92 180.666 1048.14 155.518L1143.69 155.518C1133.03 186.744 1122.65 218.422 1110.54 249.104C1100.53 274.438 1089.86 297.689 1069.69 316.745L1158.28 463.401L1054.11 463.401L986.427 346.618H937.989V463.401H849.074V29.4453L937.989 29.4453Z" fill="#18181B"/>
<path d="M421.35 155.516L498.321 355.918L573.301 155.516H670.178L540.841 463.492L452.722 463.213L325.137 155.516H421.35Z" fill="#18181B"/>
<path d="M1280.38 29.4453L1191.46 29.4453V463.401H1280.38V29.4453Z" fill="#18181B"/>
<path d="M796.387 155.875H707.473V463.758H796.387V155.875Z" fill="#18181B"/>
<path d="M740.332 0.945994C771.027 -3.20778 800.926 11.284 807.734 43.0013C817.979 90.7762 774.982 122.706 730.326 108.466C677.494 91.6256 683.732 8.60326 740.332 0.945994Z" fill="#18181B"/>
<path d="M1433.13 155.875H1344.21V463.758H1433.13V155.875Z" fill="#18181B"/>
<path d="M1377.07 0.945994C1407.77 -3.20778 1437.66 11.284 1444.47 43.0013C1454.72 90.7762 1411.72 122.706 1367.06 108.466C1314.23 91.6256 1320.47 8.60326 1377.07 0.945994Z" fill="#18181B"/>
</svg>
